<?xml version="1.0" standalone="no"?>
<!DOCTYPE svg PUBLIC "-//W3C//DTD SVG 20010904//EN"
 "http://www.w3.org/TR/2001/REC-SVG-20010904/DTD/svg10.dtd">
<svg version="1.0" xmlns="http://www.w3.org/2000/svg"
 width="512.000000pt" height="512.000000pt" viewBox="0 0 512.000000 512.000000"
 preserveAspectRatio="xMidYMid meet">

<g transform="translate(0.000000,512.000000) scale(0.100000,-0.100000)"
fill="#000000" stroke="none">
<path d="M2080 4467 c-49 -16 -133 -102 -148 -153 -9 -31 -12 -237 -12 -817
l0 -775 -182 -5 c-208 -5 -257 -15 -388 -80 -153 -75 -299 -245 -352 -409
l-22 -68 -48 0 -48 0 0 443 0 442 65 34 c72 37 103 68 143 145 23 44 27 63 27
136 -1 77 -4 91 -35 148 -36 69 -79 109 -150 144 -66 32 -196 31 -265 -2 -64
-31 -124 -91 -155 -155 -35 -72 -35 -198 0 -270 32 -66 94 -126 158 -155 l52
-24 0 -455 0 -456 -64 -33 c-191 -99 -295 -330 -241 -537 58 -220 250 -365
485 -365 l76 0 22 -67 c33 -104 88 -190 182 -283 68 -68 102 -94 170 -128 167
-82 90 -77 1210 -77 1120 0 1045 -5 1210 77 154 77 299 246 352 410 l22 68 76
0 c140 0 254 45 351 137 197 187 197 499 0 686 -97 92 -211 137 -351 137 l-76
0 -22 68 c-33 103 -88 189 -182 282 -67 67 -103 94 -170 128 -159 79 -131 76
-809 80 l-605 3 79 79 80 80 880 0 c1001 0 942 -5 1018 80 24 26 49 66 55 88
17 56 17 1208 0 1264 -6 22 -31 62 -55 88 -77 86 8 80 -1217 79 -758 -1 -1091
-4 -1116 -12z m2215 -172 l25 -24 0 -591 0 -591 -25 -24 -24 -25 -912 0 -913
0 -183 -182 -183 -182 0 797 0 798 25 24 24 25 1071 0 1071 0 24 -25z m-3432
-789 c103 -43 128 -177 48 -257 -112 -113 -296 -12 -267 146 18 94 128 150
219 111z m1057 -1001 c0 -46 4 -60 25 -80 45 -46 77 -35 169 55 l82 80 645 0
c414 0 667 -4 705 -11 213 -38 405 -230 443 -443 15 -79 15 -773 0 -852 -17
-97 -78 -211 -154 -287 -76 -77 -190 -138 -289 -156 -83 -15 -1890 -15 -1971
0 -123 23 -262 108 -338 207 -48 64 -92 162 -106 237 -15 78 -15 771 0 851 29
163 149 320 302 393 105 51 148 59 335 60 l152 1 0 -55z m-960 -826 l0 -322
-84 5 c-136 9 -231 70 -288 188 -17 36 -22 63 -22 130 0 100 24 160 89 225 65
66 134 92 243 94 l62 1 0 -321z m3410 292 c70 -33 113 -74 151 -143 31 -58 34
-70 34 -148 0 -78 -3 -90 -34 -148 -59 -109 -145 -161 -278 -170 l-83 -5 0
323 0 323 83 -5 c54 -4 97 -13 127 -27z"/>
<path d="M2503 3897 c-166 -166 -183 -186 -183 -217 0 -31 17 -51 183 -217
162 -163 186 -183 215 -183 44 0 82 38 82 81 0 28 -18 51 -142 176 l-142 143
142 143 c124 125 142 148 142 176 0 43 -38 81 -82 81 -29 0 -53 -20 -215 -183z"/>
<path d="M3397 4068 c-9 -7 -129 -163 -267 -347 -191 -256 -250 -341 -250
-363 0 -58 78 -100 123 -65 9 6 129 162 267 346 191 256 250 341 250 363 0 58
-78 100 -123 66z"/>
<path d="M3625 4055 c-16 -15 -25 -35 -25 -56 0 -28 18 -51 142 -176 l142
-143 -142 -143 c-124 -125 -142 -148 -142 -176 0 -43 38 -81 82 -81 29 0 53
20 215 183 166 166 183 186 183 217 0 31 -17 51 -183 217 -162 163 -186 183
-215 183 -22 0 -41 -9 -57 -25z"/>
<path d="M1666 2309 c-62 -15 -153 -68 -197 -116 -22 -24 -55 -74 -72 -111
l-32 -67 0 -336 0 -335 37 -76 c45 -91 103 -147 196 -191 l67 -32 895 0 895 0
67 32 c93 44 151 100 196 191 l37 76 0 336 0 336 -37 76 c-45 91 -103 147
-196 191 l-67 32 -875 2 c-508 1 -891 -3 -914 -8z m1768 -161 c55 -16 138 -99
154 -154 17 -57 17 -571 0 -628 -16 -55 -99 -138 -154 -154 -59 -17 -1689 -17
-1748 0 -55 16 -138 99 -154 154 -17 57 -17 571 0 628 15 51 99 137 148 153
52 16 1698 17 1754 1z"/>
<path d="M1863 1817 c-163 -162 -183 -186 -183 -215 0 -44 38 -82 81 -82 28 0
51 18 176 142 l143 142 143 -142 c125 -124 148 -142 176 -142 43 0 81 38 81
82 0 29 -20 53 -183 215 -166 166 -186 183 -217 183 -31 0 -51 -17 -217 -183z"/>
<path d="M2823 1817 c-163 -162 -183 -186 -183 -215 0 -44 38 -82 81 -82 28 0
51 18 176 142 l143 142 143 -142 c125 -124 148 -142 176 -142 43 0 81 38 81
82 0 29 -20 53 -183 215 -166 166 -186 183 -217 183 -31 0 -51 -17 -217 -183z"/>
</g>
</svg>
